<?xml version="1.0" standalone="no"?>
<!DOCTYPE svg PUBLIC "-//W3C//DTD SVG 20010904//EN"
 "http://www.w3.org/TR/2001/REC-SVG-20010904/DTD/svg10.dtd">
<svg version="1.0" xmlns="http://www.w3.org/2000/svg"
 width="231.000000pt" height="231.000000pt" viewBox="0 0 231.000000 231.000000"
 preserveAspectRatio="xMidYMid meet">
<metadata>
Created by potrace 1.11, written by Peter Selinger 2001-2013
</metadata>
<g transform="translate(0.000000,231.000000) scale(0.100000,-0.100000)"
fill="#000000" stroke="none">
<path d="M172 1755 c-28 -12 -33 -19 -30 -42 3 -26 7 -28 49 -31 l46 -3 7 -72
c16 -189 29 -461 29 -647 1 -246 -10 -301 -74 -360 -40 -36 -49 -66 -27 -88
41 -41 133 23 168 116 21 54 22 68 16 302 -5 250 -19 543 -32 683 l-7 77 31 0
c51 0 76 46 38 72 -20 14 -179 8 -214 -7z"/>
<path d="M653 1608 c-58 -62 -77 -202 -70 -512 5 -247 13 -300 62 -397 34 -66
74 -91 140 -86 28 2 62 11 77 21 37 24 85 126 98 206 13 85 13 427 -1 510 -26
162 -111 262 -237 277 -41 4 -50 2 -69 -19z m147 -83 c52 -27 62 -63 71 -245
5 -91 10 -181 12 -200 2 -19 0 -81 -4 -138 -13 -174 -50 -262 -109 -262 -36 0
-53 29 -76 127 -21 90 -32 581 -14 651 20 80 56 100 120 67z"/>
<path d="M1185 1620 c-58 -23 -95 -106 -95 -210 0 -82 24 -156 89 -270 26 -47
55 -107 64 -134 33 -96 15 -239 -34 -289 -24 -24 -34 -27 -64 -21 -46 8 -69
-9 -53 -40 16 -30 27 -36 74 -36 95 0 166 101 172 247 5 106 -12 162 -99 330
-66 126 -69 136 -69 200 0 45 6 80 18 103 14 30 22 35 52 35 19 1 41 4 48 8
20 13 14 44 -14 66 -28 22 -55 25 -89 11z"/>
<path d="M1706 1618 c-18 -10 -18 -20 -11 -197 13 -297 15 -275 -19 -279 -16
-2 -44 -1 -63 3 l-33 6 0 215 c0 129 -4 223 -10 235 -12 22 -52 25 -69 5 -8
-10 -11 -139 -9 -472 3 -491 5 -504 52 -504 45 0 48 13 40 245 -7 211 -7 217
12 212 10 -3 38 -8 60 -12 l42 -6 4 -192 c5 -215 12 -247 58 -247 15 0 33 6
39 14 8 10 7 133 -5 487 -8 261 -17 480 -20 487 -4 15 -42 15 -68 0z"/>
<path d="M2053 704 c-15 -24 -15 -29 -2 -53 28 -49 109 -32 109 24 0 54 -77
75 -107 29z"/>
</g>
</svg>
